<?xml version="1.0" standalone="no"?>
<!DOCTYPE svg PUBLIC "-//W3C//DTD SVG 20010904//EN"
 "http://www.w3.org/TR/2001/REC-SVG-20010904/DTD/svg10.dtd">
<svg version="1.0" xmlns="http://www.w3.org/2000/svg"
 width="500.000000pt" height="500.000000pt" viewBox="0 0 500.000000 500.000000"
 preserveAspectRatio="xMidYMid meet">

<g transform="translate(0.000000,500.000000) scale(0.100000,-0.100000)"
fill="#000000" stroke="none">
<path d="M1700 3954 c-114 -22 -234 -92 -290 -169 -32 -44 -34 -54 -35 -122 0
-70 2 -76 28 -99 28 -24 60 -30 91 -18 22 8 20 23 -5 42 -12 11 -23 34 -26 59
-15 111 121 245 257 254 54 4 54 9 2 -136 -23 -60 -70 -191 -106 -290 -70
-192 -92 -225 -147 -225 -18 0 -29 -5 -29 -14 0 -32 360 -34 461 -2 101 31
197 101 246 179 80 127 92 301 27 400 -60 91 -168 137 -334 142 -63 2 -126 2
-140 -1z m319 -87 c58 -38 82 -84 88 -169 18 -244 -146 -448 -361 -448 -40 0
-68 5 -74 13 -13 15 1 77 38 167 12 30 55 147 95 259 41 112 79 207 85 211 19
12 88 -6 129 -33z"/>
<path d="M2930 3903 c-26 -5 -53 -23 -33 -23 28 0 16 -58 -64 -303 -47 -144
-88 -281 -91 -304 -4 -38 -2 -43 22 -54 35 -16 95 2 141 42 42 38 50 72 9 40
-38 -30 -64 -28 -64 5 0 15 41 149 90 298 50 150 90 280 90 289 0 17 -38 21
-100 10z"/>
<path d="M3182 3641 c-63 -22 -132 -85 -161 -146 -10 -22 -25 -69 -31 -102
-11 -55 -10 -66 6 -99 29 -57 63 -77 131 -77 65 0 110 19 161 66 49 47 38 60
-19 21 -67 -44 -127 -48 -158 -8 -44 56 -13 202 58 275 47 49 74 56 101 29 21
-21 22 -38 3 -86 -5 -14 -2 -16 23 -10 33 8 74 49 74 74 0 30 -29 61 -68 72
-49 13 -58 13 -120 -9z"/>
<path d="M3593 3647 c-92 -26 -180 -115 -208 -210 -19 -65 -19 -97 1 -147 22
-54 60 -74 141 -73 48 0 72 6 107 27 42 24 94 81 84 92 -3 2 -31 -11 -63 -31
-90 -54 -155 -46 -174 21 -12 41 3 64 39 64 83 0 219 89 235 153 21 83 -57
133 -162 104z m77 -47 c26 -49 -34 -131 -124 -170 -64 -29 -73 -18 -45 55 40
106 138 173 169 115z"/>
<path d="M2314 3612 c5 -18 -8 -72 -39 -166 -60 -183 -58 -219 9 -231 56 -11
111 11 165 65 28 28 52 50 54 50 2 0 2 -22 -1 -50 -4 -46 -3 -50 22 -61 35
-16 88 0 139 41 50 42 50 68 0 34 -75 -51 -78 -19 -13 169 27 81 50 154 50
162 0 11 -13 15 -49 15 l-49 0 -27 -87 c-35 -112 -65 -172 -113 -222 -57 -60
-122 -69 -122 -15 0 14 20 86 45 160 25 73 45 140 45 148 0 13 -12 16 -61 16
l-61 0 6 -28z"/>
<path d="M793 3110 c-60 -14 -108 -46 -140 -94 -27 -39 -33 -58 -33 -100 0
-44 4 -56 28 -79 33 -32 81 -44 111 -27 22 11 22 12 -11 33 -30 21 -33 28 -36
79 -3 55 -1 59 36 96 33 33 50 41 106 52 66 12 171 7 181 -10 5 -8 -155 -496
-176 -537 -7 -12 -29 -29 -50 -37 -22 -9 -39 -19 -39 -24 0 -4 56 -7 125 -7
69 0 125 3 125 6 0 3 -11 11 -25 17 -36 16 -33 40 26 210 27 81 63 188 80 237
41 125 36 119 102 105 30 -7 81 -11 113 -8 47 4 62 10 81 32 27 32 32 72 7 62
-66 -25 -106 -27 -279 -12 -191 17 -280 19 -332 6z"/>
<path d="M3492 3044 c-29 -20 -31 -79 -3 -94 36 -19 91 17 91 60 0 48 -43 66
-88 34z"/>
<path d="M3845 2980 l-50 -50 35 6 c19 4 55 14 80 23 37 14 45 21 45 41 0 20
-6 26 -30 28 -25 2 -39 -6 -80 -48z"/>
<path d="M2323 2989 c-13 -5 -23 -13 -23 -18 0 -25 -65 -82 -108 -94 -54 -16
-68 -37 -23 -37 16 0 32 -3 34 -7 3 -5 -17 -75 -44 -158 -51 -155 -58 -196
-36 -212 40 -32 127 -17 186 33 47 41 46 63 -2 34 -34 -21 -82 -26 -92 -10 -6
9 73 258 95 299 8 16 20 21 54 21 30 0 46 5 50 15 4 12 -4 15 -40 15 -45 0
-46 1 -41 28 3 15 9 42 15 59 12 37 6 44 -25 32z"/>
<path d="M1340 2867 c-56 -18 -144 -112 -169 -180 -38 -105 -21 -195 43 -222
89 -37 223 4 267 82 20 37 4 37 -46 -1 -39 -30 -55 -36 -96 -36 -57 0 -89 24
-89 68 0 35 16 52 50 52 37 0 126 35 166 65 67 51 84 128 38 164 -30 24 -104
27 -164 8z m98 -29 c28 -28 8 -87 -46 -134 -24 -22 -121 -58 -130 -50 -2 3 4
28 13 56 32 95 124 167 163 128z"/>
<path d="M1860 2854 c-25 -14 -64 -44 -87 -67 -48 -46 -49 -46 -28 13 25 71
24 74 -47 66 -68 -7 -77 -11 -60 -28 18 -18 15 -37 -32 -185 -68 -210 -67
-193 -9 -193 l49 0 28 88 c36 111 62 156 124 214 57 54 96 68 119 45 14 -13
11 -28 -26 -143 -28 -85 -41 -141 -39 -168 3 -40 4 -41 42 -44 48 -4 85 11
122 49 32 34 26 49 -10 25 -27 -17 -52 -21 -59 -8 -3 4 11 52 30 107 50 145
53 157 53 187 0 69 -86 90 -170 42z"/>
<path d="M2634 2868 c-46 -15 -124 -77 -165 -131 -65 -87 -88 -210 -48 -261
17 -22 28 -26 70 -26 60 0 91 15 144 69 21 23 42 41 45 41 3 0 3 -22 2 -50 -4
-45 -2 -51 21 -59 35 -14 90 3 132 41 19 16 35 34 35 39 0 15 -26 10 -40 -6
-7 -9 -23 -15 -34 -13 -29 4 -24 31 35 207 27 80 49 147 49 149 0 2 -26 3 -57
3 -32 -1 -80 1 -108 3 -27 3 -64 0 -81 -6z m92 -38 c24 -10 26 -14 22 -53 -8
-63 -56 -156 -113 -214 -41 -42 -58 -53 -83 -53 -43 0 -56 32 -41 98 23 106
112 216 186 232 1 0 14 -5 29 -10z"/>
<path d="M3095 2856 c-145 -67 -225 -281 -137 -369 27 -27 40 -32 94 -35 54
-3 71 0 117 25 53 28 101 76 88 90 -4 3 -17 -3 -30 -15 -59 -55 -152 -64 -183
-17 -48 74 19 258 112 302 32 16 35 15 55 -3 17 -16 20 -26 15 -61 -7 -52 7
-56 53 -17 38 31 41 74 9 104 -32 29 -126 28 -193 -4z"/>
<path d="M3746 2864 c-98 -36 -172 -136 -183 -246 -10 -115 34 -168 139 -168
100 0 191 57 243 151 25 46 30 65 30 124 0 52 -5 78 -18 99 -35 53 -128 71
-211 40z m121 -40 c18 -17 16 -118 -2 -178 -41 -134 -128 -203 -185 -146 -40
40 -17 199 41 285 40 59 108 77 146 39z"/>
<path d="M4313 2859 c-23 -11 -58 -39 -78 -61 -39 -43 -51 -45 -37 -7 5 13 12
37 16 53 l7 29 -62 -7 c-64 -6 -90 -18 -70 -30 6 -4 11 -18 11 -31 0 -18 -74
-273 -97 -332 -4 -9 9 -13 45 -13 l49 0 27 82 c39 117 67 167 124 220 72 67
122 76 122 22 0 -25 -25 -113 -61 -212 -33 -91 -23 -122 41 -122 47 0 130 51
130 79 0 16 -16 13 -30 -4 -7 -9 -23 -15 -34 -13 -27 4 -25 22 25 167 21 62
39 124 39 137 0 62 -85 84 -167 43z"/>
<path d="M3423 2863 c-37 -5 -38 -6 -22 -31 9 -14 2 -48 -35 -163 -62 -195
-60 -219 14 -219 48 0 146 68 126 87 -3 3 -17 -2 -30 -11 -33 -21 -56 -20 -56
2 0 10 22 85 50 167 27 83 50 156 50 163 0 12 -28 13 -97 5z"/>
<path d="M2964 2275 c-17 -17 -41 -58 -54 -92 -18 -49 -25 -60 -39 -54 -9 4
-51 24 -95 44 -43 20 -80 37 -82 37 -10 0 -2 -35 15 -70 l19 -40 -21 -1 c-121
-6 -196 -56 -245 -161 -9 -21 -21 -38 -25 -38 -4 0 -19 11 -33 25 -36 36 -102
71 -161 85 -29 7 -53 13 -53 15 0 1 7 16 15 31 8 16 15 39 15 52 0 23 0 23
-43 -7 -38 -28 -106 -56 -114 -47 -2 1 2 17 8 35 10 29 5 121 -7 121 -8 0 -56
-58 -97 -119 -22 -31 -40 -57 -41 -59 -2 -1 -15 15 -29 37 -31 46 -93 89 -109
73 -19 -19 -21 -98 -4 -148 9 -26 16 -49 16 -51 0 -10 -134 -1 -169 12 -22 8
-41 11 -41 7 0 -20 43 -73 71 -88 l32 -16 -77 -43 c-82 -45 -85 -56 -18 -70
37 -8 37 -7 18 -43 -21 -42 -28 -111 -16 -171 33 -175 161 -300 420 -409 206
-88 287 -89 375 -8 l46 44 52 -53 c43 -42 61 -53 97 -59 63 -9 140 13 286 83
313 150 450 289 462 467 3 51 0 86 -12 120 -9 26 -16 49 -16 51 0 2 24 3 54 3
30 0 58 5 61 10 3 6 1 10 -6 10 -16 0 -179 101 -179 111 0 5 7 9 15 9 24 0
108 46 133 73 l23 24 -83 6 c-46 4 -117 7 -158 7 l-74 0 69 70 c38 38 67 71
64 73 -2 3 -14 10 -27 16 -26 14 -29 12 -109 -63 -24 -22 -44 -38 -46 -35 -14
18 -42 115 -46 164 l-6 60 -31 -30z m-224 -388 c0 -25 6 -37 23 -45 12 -6 16
-11 10 -11 -7 -1 -13 -6 -13 -12 0 -5 5 -7 12 -3 6 4 -1 -10 -17 -32 -16 -21
-30 -41 -31 -42 -2 -2 -7 13 -13 34 -8 30 -7 43 4 61 9 14 13 35 10 53 -3 17
-1 30 5 30 5 0 10 -15 10 -33z m80 29 c0 -2 -7 -7 -16 -10 -8 -3 -12 -2 -9 4
6 10 25 14 25 6z m-180 -20 c0 -2 -8 -10 -17 -17 -16 -13 -17 -12 -4 4 13 16
21 21 21 13z m-39 -73 c1 -10 1 -22 0 -26 -1 -5 2 -6 7 -3 5 3 17 -1 27 -8 16
-12 16 -13 1 -19 -9 -4 -16 -2 -16 3 0 5 -7 7 -15 4 -9 -4 -15 0 -16 7 0 8 -2
24 -3 37 -2 12 1 22 6 22 4 0 9 -8 9 -17z m-523 -84 c-3 -8 -7 -3 -11 10 -4
17 -3 21 5 13 5 -5 8 -16 6 -23z m-124 -15 c11 -28 6 -38 -9 -18 -8 10 -15 22
-15 27 0 13 18 7 24 -9z m-69 -54 c-3 -4 6 -7 19 -6 17 1 21 5 15 12 -6 7 -3
16 8 25 15 12 16 12 10 -3 -3 -10 -2 -18 3 -18 21 0 9 -20 -21 -36 -21 -10
-29 -11 -23 -3 5 9 2 10 -11 6 -18 -7 -45 8 -45 24 0 5 7 9 16 9 14 0 15 2 3
18 -11 14 -10 14 8 -2 13 -10 20 -22 18 -26z m265 -85 c0 -8 -2 -15 -4 -15 -2
0 -6 7 -10 15 -3 8 -1 15 4 15 6 0 10 -7 10 -15z m680 1 c0 -3 -4 -8 -10 -11
-5 -3 -10 -1 -10 4 0 6 5 11 10 11 6 0 10 -2 10 -4z m-1025 -36 c3 -6 -1 -7
-9 -4 -18 7 -21 14 -7 14 6 0 13 -4 16 -10z m732 -82 c-3 -8 -6 -5 -6 6 -1 11
2 17 5 13 3 -3 4 -12 1 -19z"/>
<path d="M2710 1811 c0 -6 4 -13 10 -16 6 -3 7 1 4 9 -7 18 -14 21 -14 7z"/>
</g>
</svg>
